# Made in Blockbench 5.1.3
mtllib pole.mtl

o mesh
v 0.0625 4.9375 0.0625
v 0.0625 4.9375 -0.0625
v 0.0625 0.5625 0.0625
v 0.0625 0.5625 -0.0625
v -0.0625 4.9375 0.0625
v -0.0625 4.9375 -0.0625
v -0.0625 0.5625 0.0625
v -0.0625 0.5625 -0.0625
vt 0.015625 1
vt 0 1
vt 0 0.453125
vt 0.015625 0.453125
vt 0.03125 0.453125
vt 0.03125 1
vt 0.015625 1
vt 0.015625 0.453125
vt 0.21875 0.984375
vt 0.234375 0.984375
vt 0.234375 1
vt 0.21875 1
vt 0.234375 0.96875
vt 0.234375 0.984375
vt 0.21875 0.984375
vt 0.21875 0.96875
vt 0.046875 0.453125
vt 0.046875 1
vt 0.03125 1
vt 0.03125 0.453125
vt 0.0625 1
vt 0.046875 1
vt 0.046875 0.453125
vt 0.0625 0.453125
vn 1 0 0
vn -1 0 0
vn 0 1 0
vn 0 -1 0
vn 0 0 1
vn 0 0 -1
usemtl m_589f03ca-6a84-5932-10a3-19e20e037bf9
f 2/1/1 1/2/1 3/3/1 4/4/1
f 7/5/2 5/6/2 6/7/2 8/8/2
f 5/9/3 1/10/3 2/11/3 6/12/3
f 4/13/4 3/14/4 7/15/4 8/16/4
f 3/17/5 1/18/5 5/19/5 7/20/5
f 6/21/6 2/22/6 4/23/6 8/24/6
o mesh
v 0.3125 0.5625 0.3125
v 0.3125 0.5625 -0.3125
v 0.3125 -0.0625 0.3125
v 0.3125 -0.0625 -0.3125
v -0.3125 0.5625 0.3125
v -0.3125 0.5625 -0.3125
v -0.3125 -0.0625 0.3125
v -0.3125 -0.0625 -0.3125
vt 0.140625 1
vt 0.0625 1
vt 0.0625 0.921875
vt 0.140625 0.921875
vt 0.140625 0.84375
vt 0.140625 0.921875
vt 0.0625 0.921875
vt 0.0625 0.84375
vt 0.140625 0.921875
vt 0.21875 0.921875
vt 0.21875 1
vt 0.140625 1
vt 0.21875 0.84375
vt 0.21875 0.921875
vt 0.140625 0.921875
vt 0.140625 0.84375
vt 0.140625 0.765625
vt 0.140625 0.84375
vt 0.0625 0.84375
vt 0.0625 0.765625
vt 0.21875 0.84375
vt 0.140625 0.84375
vt 0.140625 0.765625
vt 0.21875 0.765625
vn 1 0 0
vn -1 0 0
vn 0 1 0
vn 0 -1 0
vn 0 0 1
vn 0 0 -1
usemtl m_589f03ca-6a84-5932-10a3-19e20e037bf9
f 10/25/7 9/26/7 11/27/7 12/28/7
f 15/29/8 13/30/8 14/31/8 16/32/8
f 13/33/9 9/34/9 10/35/9 14/36/9
f 12/37/10 11/38/10 15/39/10 16/40/10
f 11/41/11 9/42/11 13/43/11 15/44/11
f 14/45/12 10/46/12 12/47/12 16/48/12